<?xml version="1.0" encoding="UTF-8"?>
<svg width="18px" height="18px" viewBox="0 0 18 18" version="1.1" xmlns="http://www.w3.org/2000/svg" xmlns:xlink="http://www.w3.org/1999/xlink">
    <!-- Generator: sketchtool 63.1 (101010) - https://sketch.com -->
    <title>B4381D50-3AEF-47E8-8130-AE3E1B8DFA27</title>
    <desc>Created with sketchtool.</desc>
    <g id="Page-1" stroke="#9aae04" stroke-width="1" fill="#9aae04" fill-rule="evenodd">
        <g id="D_REE_Componentes" transform="translate(-441.000000, -6436.000000)" fill="#9aae04">
            <g id="Inputs" transform="translate(30.000000, 4614.000000)">
                <g id="Molecule/inputs/icon_input/pasive" transform="translate(394.000000, 1806.000000)">
                    <g id="Atom/Icon/ico_checkbox_unchecked" transform="translate(16.000000, 15.000000)">
                        <path d="M17,3.875 C17,3.392 16.608,3 16.125,3 L3.875,3 C3.392,3 3,3.392 3,3.875 L3,16.125 C3,16.608 3.392,17 3.875,17 L16.125,17 C16.608,17 17,16.608 17,16.125 L17,3.875 Z M18.75,3 L18.75,17 C18.75,17.966875 17.966875,18.75 17,18.75 L3,18.75 C2.033125,18.75 1.25,17.966875 1.25,17 L1.25,3 C1.25,2.033125 2.033125,1.25 3,1.25 L17,1.25 C17.966875,1.25 18.75,2.033125 18.75,3 L18.75,3 Z" id="checked"></path>
                        <g id="tic" transform="translate(3.750000, 3.750000)">
                            <path d="M10.6088328,3.45366717 C11.0470557,3.8907693 11.0470557,4.60134045 10.6088328,5.03844257 L6.25126087,9.39601453 C5.59336613,10.0527885 4.52863019,10.0527885 3.87073545,9.39601453 L1.89032659,7.41560567 C1.45322447,6.97850354 1.45322447,6.26905317 1.89032659,5.83083027 C2.32854949,5.39372814 3.03799987,5.39372814 3.47510199,5.83083027 L4.26636891,6.62209719 C4.70459181,7.06032009 5.41628374,7.06032009 5.85562741,6.62209719 L9.02405743,3.45366717 C9.46115955,3.01544428 10.1717307,3.01544428 10.6088328,3.45366717 L10.6088328,3.45366717 Z" id="Path"></path>
                        </g>
                    </g>
                </g>
            </g>
        </g>
    </g>
</svg>